<?xml version="1.0" encoding="utf-8"?>
<!-- Generator: Adobe Illustrator 25.0.0, SVG Export Plug-In . SVG Version: 6.00 Build 0)  -->
<svg version="1.1" xmlns="http://www.w3.org/2000/svg" xmlns:xlink="http://www.w3.org/1999/xlink" x="0px" y="0px"
	 viewBox="0 0 582.95 219.85" style="enable-background:new 0 0 582.95 219.85;" xml:space="preserve">
<style type="text/css">
	.st0{display:none;}
	.st1{display:inline;}
	.st2{fill:#29ABE2;}
	.st3{fill:#0071BC;}
	.st4{display:inline;fill:#006837;}
	.st5{display:inline;fill:#8C6239;}
	.st6{display:inline;fill:#009245;}
	.st7{display:inline;fill:#754C24;}
	.st8{display:inline;fill:#42210B;}
	.st9{fill:#FFFFFF;}
	.st10{fill:#F2F2F2;}
	.st11{display:inline;fill:#F7931E;}
	.st12{display:inline;fill:#CCCCCC;}
	.st13{display:inline;fill:#E6E6E6;}
	.st14{fill:#F7931E;}
	.st15{font-family:'BDCartoonShout';}
	.st16{font-size:24.6032px;}
</style>
<g id="Layer_2" class="st0">
</g>
<g id="Layer_5" class="st0">
</g>
<g id="Layer_3" class="st0">
</g>
<g id="Layer_6" class="st0">
</g>
<g id="Layer_1" class="st0">
</g>
<g id="Layer_4">
	<g>
		<text transform="matrix(1 0 0 1 406.4297 200.4258)" class="st15 st16">generator</text>
		<text transform="matrix(1 0 0 1 0 23.4258)" class="st15 st16">the</text>
		<g>
			<path d="M317.69,60.63h2.29c0.38,0,0.76,1.91,1.15,5.73c0.31,0.04,0.69,2.49,1.15,7.34l1.15,8.26c0.34,0,0.65,3.06,0.92,9.17
				c0.27,0.38,0.57,2.29,0.92,5.73h-0.23l0.23,0.23v22.02l-0.23,0.92l0.23,0.23v0.23c-0.77,3.29-1.22,6.5-1.38,9.63
				c-1.38,6.38-2.91,11.66-4.59,15.83c-2.14,4.89-4.97,9.4-8.49,13.53c-3.82,3.67-7.03,6.04-9.63,7.11
				c-2.6,1.53-5.12,2.45-7.57,2.75c0,0.53-3.44,1.07-10.32,1.61h-0.23c-7.19-0.5-10.78-1.11-10.78-1.83
				c-3.17-0.54-7.3-2.98-12.39-7.34c-2.14-2.45-4.05-5.2-5.73-8.26l-0.92-2.52c-1.07-1.68-2.06-6.12-2.98-13.3
				c0-0.95,1.38-1.57,4.13-1.83c0-0.31,1.22-0.69,3.67-1.15c0-0.34,1.15-0.73,3.44-1.15c0-0.31,0.92-0.69,2.75-1.15
				c0.15-0.38,1.15-0.76,2.98-1.15c0-0.31,0.84-0.69,2.52-1.15c0-0.34,0.69-0.65,2.06-0.92c0.08-0.31,0.46-0.61,1.15-0.92
				c1.07,0,1.61,0.54,1.61,1.61l-0.23,1.15c0.34,4.28,1.11,7.72,2.29,10.32c0.31,0,0.53,0.61,0.69,1.83
				c2.67,3.06,4.82,4.59,6.42,4.59h3.21c1.87,0,4.17-1.68,6.88-5.05c2.45-5.28,3.67-9.33,3.67-12.16c0.57,0,1.26-5.43,2.06-16.28
				V99.85c-0.77-9.56-1.53-16.59-2.29-21.1c0-1.95-0.38-4.7-1.15-8.26v-3.44c1.41-1.15,3.1-1.91,5.05-2.29
				c0-0.34,1.22-0.73,3.67-1.15c0-0.34,1.3-0.73,3.9-1.15c0.34-0.38,1.95-0.69,4.82-0.92C313.64,61.08,315.01,60.78,317.69,60.63z"
				/>
			<path d="M381.51,61.37h7.11c5.54,0.77,8.83,1.53,9.86,2.29c2.9,0.57,6.88,2.79,11.93,6.65c5.43,5.43,8.64,9.94,9.63,13.53
				c0.5,0.38,0.95,1.61,1.38,3.67c0.34,0,0.73,1.45,1.15,4.36c0.38,0,0.61,0.92,0.69,2.75v1.15l0.23,4.36
				c0,6.92-0.46,12.35-1.38,16.28c0,1.72-1.07,5.93-3.21,12.61c-2.64,7.53-6.38,14.49-11.24,20.87c-5.01,5.5-8.53,8.79-10.55,9.86
				c-1.76,1.61-5.28,3.59-10.55,5.96c-5.05,1.83-7.95,2.75-8.72,2.75l-7.11,1.15h-7.8c-1.68,0-5.58-1.15-11.7-3.44l-6.65-4.59
				c-4.93-5.35-7.68-9.1-8.26-11.24c-1.87-2.9-3.63-8.1-5.28-15.6v-1.38l-0.23-6.42l0.23-6.42v-0.69c0.76-5.77,1.91-10.97,3.44-15.6
				l1.38-3.67c0.76-1.26,1.15-2.41,1.15-3.44c0.23,0,1.45-2.29,3.67-6.88c0.61,0,0.92-0.53,0.92-1.61l7.34-9.63
				c3.75-4.01,6.12-6.23,7.11-6.65c3.98-3.29,7.8-5.66,11.47-7.11c0-0.31,0.46-0.46,1.38-0.46c0.15-0.46,1.61-0.99,4.36-1.61
				c0-0.42,1.83-0.8,5.5-1.15C378.76,61.68,379.67,61.45,381.51,61.37z M378.3,88.21l-3.44,1.15c-0.46,0-1.07,0.38-1.83,1.15
				c-2.22,0.8-4.97,3.4-8.26,7.8c-4.89,6.92-7.34,14.41-7.34,22.48l0.23,1.38l-0.23,0.23v0.23c0.11,3.98,1.03,7.8,2.75,11.47
				c0.99,1.8,1.99,3.17,2.98,4.13c3.13,2.6,5.96,3.9,8.49,3.9c0,0.23,1.15,0.46,3.44,0.69c4.59-0.69,7.42-1.45,8.49-2.29
				c1.45-0.57,3.67-2.48,6.65-5.73c2.71-3.59,4.62-7.11,5.73-10.55c1.99-4.93,2.98-10.05,2.98-15.37c0-5.66-0.84-9.86-2.52-12.61
				c-0.04-0.84-1.57-2.6-4.59-5.28L390,90.04c0-0.19-1.53-0.8-4.59-1.83h-3.9l-0.23-0.23l-0.23,0.23H378.3z"/>
			<path d="M448.25,60.97h1.15l0.92,0.92v2.75l1.15,7.11v2.75c0.76,7.76,1.15,15.86,1.15,24.31v1.15l0.46,0.46
				c2.71-2.33,8.22-8.14,16.51-17.43c4.28-4.93,8.64-10.28,13.07-16.06l3.9-5.5l0.69-0.46h0.69l6.88,4.82
				c0.53,0,3.59,2.37,9.17,7.11l1.15,1.38v0.23l-5.96,9.63c-0.34,0-1.49,1.61-3.44,4.82c-0.34,0-1.19,1.07-2.52,3.21l-5.05,6.42
				l-9.17,10.32v0.23c0.76,1.07,1.61,3.14,2.52,6.19c0.23,0.04,1.45,2.41,3.67,7.11c4.55,8.26,8.68,15.29,12.39,21.1
				c0.31,0,1.07,1.15,2.29,3.44l4.13,5.28v0.23l-6.19,4.82c-6.04,4.66-10.63,8.56-13.76,11.7h-0.23c-2.56-2.22-5.01-5.43-7.34-9.63
				c-4.13-6.23-8.87-14.87-14.22-25.92l-3.9-9.63l-0.92-0.23c-2.03,2.29-3.56,3.44-4.59,3.44l-0.23,11.93v2.06l-0.23,3.67l0.23,0.69
				c-0.77,4.86-1.15,8.91-1.15,12.16v2.52c-0.77,5.93-1.3,8.98-1.61,9.17h-0.23c-1.22-0.61-4.44-1.38-9.63-2.29
				c-3.17-0.76-6.54-1.3-10.09-1.61c-1.99-0.5-2.98-0.88-2.98-1.15v-1.61l1.15-17.2l0.23-13.07l-0.23-0.23l0.23-0.69l0.23-14.91
				c-0.31-27.68-0.77-41.51-1.38-41.51l-0.23-6.19v-1.61c0-0.8,2.06-1.41,6.19-1.83c0.23-0.46,2.06-0.92,5.5-1.38
				c0.34-0.38,1.64-0.69,3.9-0.92c0-0.46,1.22-0.84,3.67-1.15C446.88,61.28,447.57,60.97,448.25,60.97z"/>
			<path d="M566.43,62.12l9.17,0.23l0.69,0.92c-1.49,4.32-2.41,8.22-2.75,11.7c-0.42,1.15-0.8,4.13-1.15,8.95l-0.23,0.23
				c0,0.92-0.46,1.38-1.38,1.38v0.23l-0.69-0.23l-15.83,0.23h-2.29c-11.01,0.54-16.51,1.15-16.51,1.83l-1.15,15.83l0.92,0.23
				c7.53-0.46,16.4-0.76,26.61-0.92l0.92,1.38c0,1.91-0.46,5.35-1.38,10.32c-0.31,7.19-0.92,10.78-1.83,10.78h-0.46
				c-7.42,0-15.75,0.23-25,0.69l-0.69,0.23l-0.23,10.55c0,3.63,1.53,6.23,4.59,7.8c3.59,1.07,6.04,1.61,7.34,1.61h8.72
				c15.37-0.76,24.77-1.45,28.21-2.06h0.69l0.23,0.23v0.69c-0.77,1.11-1.15,2.41-1.15,3.9c-0.5,0-0.88,1.15-1.15,3.44
				c-0.34,0-0.8,1.3-1.38,3.9c-0.23,0-0.61,1.45-1.15,4.36c-0.31,0-0.69,1.15-1.15,3.44l-0.92,2.06c-6.23,0.92-19.3,1.38-39.22,1.38
				c-8.72-0.11-13.07-0.57-13.07-1.38c-1.87,0-3.17-0.38-3.9-1.15c-1.91-0.46-4.13-2.06-6.65-4.82c-1.61-2.41-2.68-4.85-3.21-7.34
				c-0.54,0-1.07-5.2-1.61-15.6v-2.29l0.23-1.83l-0.23-1.38c0.61-27.03,1.68-46.6,3.21-58.72v-3.21c0-1.8,2.14-2.79,6.42-2.98
				c0.53-0.61,2.52-0.92,5.96-0.92c0.99-0.57,4.51-1.11,10.55-1.61l17.89-1.83L566.43,62.12z"/>
		</g>
		<path d="M52.83,29.37l9.96,0.21l9.33,1.48c0,0.21,1.41,0.57,4.24,1.06c0,0.18,1.06,0.53,3.18,1.06c0,0.35,0.99,0.64,2.97,0.85
			c0.14,0.39,2.12,1.38,5.93,2.97c0.11,0.35,1.24,1.13,3.39,2.33c0,0.5,0.42,0.85,1.27,1.06c0,0.28,0.71,0.92,2.12,1.91
			c4.06,4.84,6.32,8.58,6.78,11.23c0.32,0.28,0.88,2.26,1.7,5.93l0.21,5.93c0,3.39-0.42,6.92-1.27,10.6
			c-1.52,5.16-3.78,10.17-6.78,15.05c-1.38,2.3-2.51,3.85-3.39,4.66c0,0.88-3.39,4.7-10.17,11.44c-2.37,2.19-4.84,4.17-7.42,5.93
			c-0.07,0.35-1.13,1.06-3.18,2.12c0,0.39-0.56,0.67-1.7,0.85c0,0.42-1.41,1.34-4.24,2.76c-1.13,0.35-1.7,0.71-1.7,1.06
			c-0.53,0-1.52,0.42-2.97,1.27l-5.3,2.12c-2.65,0.85-4.49,1.27-5.51,1.27c0,0.46-1.84,0.88-5.51,1.27c0,0.42-0.99,0.64-2.97,0.64
			h-15.9c-5.37-0.25-8.13-0.88-8.27-1.91c0.56-6.71,0.85-12.22,0.85-16.53V84.69l-0.42-26.7l-0.21-0.21h-0.21L8.96,60.1l-3.6,1.06
			c0,0.32-0.35,0.53-1.06,0.64l-0.64-0.64c0.56-3.11,0.85-5.44,0.85-6.99v-3.6L3.45,39.33c1.2-0.99,2.4-1.48,3.6-1.48
			c0-0.42,0.99-0.85,2.97-1.27c0-0.32,1.06-0.67,3.18-1.06c0.25-0.32,2.58-0.95,6.99-1.91c0.46-0.42,2.23-0.85,5.3-1.27
			c0-0.46,1.62-0.74,4.87-0.85c0.35-0.56,2.26-0.85,5.72-0.85c0.99-0.42,2.97-0.78,5.93-1.06L52.83,29.37z M40.54,53.96
			c0.28,0.28,0.5,1.48,0.64,3.6l-0.21,0.21l0.21,1.06v37.3l-0.21,6.36h0.21c4.63-0.56,7.74-1.2,9.33-1.91
			c0.85,0,1.98-0.35,3.39-1.06c0.42,0,1.98-0.71,4.66-2.12c4.45-2.15,8.69-5.76,12.72-10.81c2.12-2.4,3.96-6.07,5.51-11.02
			c0-1.8,0.14-3.14,0.42-4.03c0-6.15-1.62-10.46-4.87-12.93c-1.73-2.12-4.91-3.74-9.54-4.87c0-0.28-3.6-0.78-10.81-1.48
			C44.36,52.65,40.54,53.21,40.54,53.96z"/>
		<path d="M164.69,28.2h0.21c1.41,0,2.12,2.12,2.12,6.36c0.46,0.39,0.88,2.37,1.27,5.93c0.35,0,0.64,1.41,0.85,4.24
			c0.71,1.34,1.06,2.9,1.06,4.66c0.32,0,0.74,1.56,1.27,4.66c0.21,0,0.56,1.41,1.06,4.24c0.39,0.07,0.67,1.34,0.85,3.81
			c0.5,0.95,1.27,3.71,2.33,8.27c0.42,0,0.71,1.2,0.85,3.6c0.71,0.88,1.06,2.08,1.06,3.6c0.53,0.07,0.88,1.27,1.06,3.6
			c0.32,0.18,0.74,1.45,1.27,3.81c0.25,0.14,0.67,1.48,1.27,4.03l4.87,15.05c0.56,0.67,0.92,1.66,1.06,2.97
			c0.35,0,0.78,1.13,1.27,3.39c0.21,0.04,0.92,1.59,2.12,4.66c0.32,0,0.6,0.64,0.85,1.91l0.85,0.85v0.21
			c-1.27,1.27-2.4,1.91-3.39,1.91c0,0.46-0.71,0.88-2.12,1.27c-0.03,0.25-1.45,1.1-4.24,2.54l-4.45,2.54
			c-2.97,1.7-4.45,2.67-4.45,2.91l-1.48,0.42h-0.85c-0.32,0-0.6-0.78-0.85-2.33c-0.35-0.39-1.34-2.7-2.97-6.94l-1.91-5.51
			l-0.42-1.91c-0.35,0-0.78-1.2-1.27-3.6c-0.28,0-0.64-1.2-1.06-3.6l-0.21-0.21h-0.21c-4.49,0.28-9.15,0.78-13.99,1.48l-6.15,1.06
			c-1.03,0-2.93,0.35-5.72,1.06c-0.78,0-1.41,1.56-1.91,4.66c-1.13,3.85-1.84,7.03-2.12,9.54c-0.25,0-0.53,0.85-0.85,2.54
			l-0.21,0.21h-24.16l-0.64-0.64c0-0.53,1.2-3.92,3.6-10.17c1.59-4.84,2.58-7.45,2.97-7.84L117,96.02
			c4.52-12.72,8.48-24.37,11.87-34.97l2.33-6.99c0.03-0.71,0.46-2.12,1.27-4.24l1.06-3.6l1.48-5.51c0.35,0,0.64-1.06,0.85-3.18
			c0.32,0,0.53-0.64,0.64-1.91l0.21-1.48l0.85-0.64h1.27l9.11-1.48c0-0.21,1.98-0.56,5.93-1.06c0.5-0.32,2.12-0.67,4.87-1.06
			c0-0.39,1.27-0.67,3.81-0.85C162.57,28.66,163.27,28.38,164.69,28.2z M141.37,88.18l0.42,0.42c3.18-0.71,6.22-1.2,9.11-1.48
			c0.32-0.32,2.15-0.67,5.51-1.06l0.64-1.06l-1.27-6.36c-0.71-2.37-1.2-4.7-1.48-6.99c-0.25,0-0.6-1.77-1.06-5.3
			c-0.32,0-0.67-1.84-1.06-5.51c-0.42,0-0.64-0.78-0.64-2.33v-1.7l-0.21-1.06h-0.21c-0.64,0-1.13,1.41-1.48,4.24
			c-0.32,0.11-0.74,1.45-1.27,4.03c-0.28,0-0.64,1.2-1.06,3.6c-0.25,0-0.6,1.27-1.06,3.81c-0.32,0-0.67,1.2-1.06,3.6
			c-0.39,0-0.67,1.2-0.85,3.6c-0.42,0-0.85,1.41-1.27,4.24c-0.32,0-0.67,1.2-1.06,3.6C141.58,87.02,141.37,87.58,141.37,88.18z"/>
		<path d="M230.12,28.68c6.85,0,12.08,0.42,15.68,1.27l4.66,1.06c8.76,2.26,15.97,6.29,21.62,12.08c3.25,3.74,5.23,6.78,5.93,9.11
			c1.38,2.23,2.23,4.56,2.54,6.99c0.32,0,0.67,1.77,1.06,5.3c0.21,0,0.42,0.78,0.64,2.33l-0.21,0.64l0.21,2.33
			c0,3.96-0.35,8.27-1.06,12.93c0,1.34-0.35,3.11-1.06,5.3c0,1.03-0.92,3.92-2.76,8.69c-1.38,3.5-3.78,7.52-7.21,12.08
			c-0.28,0-1.7,1.41-4.24,4.24l-3.81,3.18l-4.45,2.97l-7.21,3.39c-0.46,0-1.31,0.35-2.54,1.06c-5.58,1.7-8.83,2.54-9.75,2.54
			c0,0.39-1.56,0.65-4.66,0.79c0,0.56-6.15,1.2-18.44,1.91h-4.03l-9.11-1.06c-1.84,0-2.76-0.42-2.76-1.27l0.42-21.99
			c0-15.61-0.5-29.88-1.48-42.81c-0.85-7.52-1.27-12.4-1.27-14.62c-0.53-2.33-0.95-5.58-1.27-9.75c-0.28,0-0.42-0.99-0.42-2.97
			c0.67-0.67,2.23-1.24,4.66-1.7c0-0.42,1.2-0.71,3.6-0.85c0.53-0.53,4.7-1.38,12.5-2.54C215.92,29.04,220.66,28.82,230.12,28.68z
			 M223.34,52.21c0.39,0,0.67,4.1,0.85,12.29l0.64,4.24l-0.21,0.64l0.42,5.09l0.21,28.19l7.21-0.64h1.06
			c4.31-0.92,7.42-1.84,9.33-2.76c3.07-1.06,6.54-3.74,10.38-8.05l2.12-4.45c0-0.53,0.35-1.52,1.06-2.97l1.06-6.15V69.8
			c0-2.01-0.92-4.7-2.76-8.05c-1.87-2.86-4.13-5.05-6.78-6.57l-1.7-0.85c0-0.28-0.85-0.64-2.54-1.06c0-0.39-0.92-0.67-2.76-0.85
			c0-0.53-3.11-1.09-9.33-1.7C226.09,50.97,223.34,51.46,223.34,52.21z"/>
		<path d="M192.24,186.26c0,0-5.98-41.65,32.02-29.65"/>
		<g>
			<path d="M204.74,163.47c6.81,8.41,13.43,15.73,20.62,21.83c7.17,6.07,14.7,10.94,23.04,14.31c4.17,1.66,8.5,3.04,13.03,4.05
				c1.12,0.29,2.29,0.42,3.43,0.67c1.15,0.23,2.3,0.47,3.49,0.59c1.18,0.15,2.36,0.34,3.54,0.51c1.19,0.14,2.4,0.21,3.61,0.34
				c2.42,0.3,4.88,0.34,7.37,0.53c2.49,0.14,5.01,0.1,7.57,0.23c2.55,0,5.13-0.04,7.78,0.04c2.62-0.07,5.28-0.1,8.04,0.04
				c-2.22,1.58-4.54,2.98-6.9,4.35c-1.2,0.62-2.42,1.21-3.65,1.79c-1.23,0.59-2.47,1.16-3.73,1.68c-5.08,1.95-10.38,3.61-15.9,4.45
				c-1.38,0.22-2.76,0.44-4.16,0.6c-1.4,0.1-2.81,0.21-4.23,0.28c-0.71,0.03-1.42,0.1-2.13,0.09l-2.14-0.05
				c-1.43-0.05-2.86-0.04-4.29-0.19c-5.74-0.46-11.48-1.75-17-3.74c-11.09-3.96-20.88-11.49-27.62-20.75
				c-3.4-4.63-6.06-9.69-7.91-14.97c-0.95-2.63-1.66-5.34-2.17-8.07c-0.49-2.74-0.8-5.5-0.64-8.34L204.74,163.47z"/>
		</g>
	</g>
</g>
<g id="Layer_7" class="st0">
</g>
</svg>
